<mxfile host="app.diagrams.net" modified="2024-06-09T12:39:52.022Z" agent="Mozilla/5.0 (Windows NT 10.0; Win64; x64) AppleWebKit/537.36 (KHTML, like Gecko) Chrome/125.0.0.0 Safari/537.36" version="24.2.8" etag="0L9s4loCuLlUuOEGnv13" type="github">
  <diagram name="PÃ¡gina-1" id="L7Z_sRCywvTCOh1w-jR7">
    <mxGraphModel>
      <root>
        <mxCell id="0" />
        <mxCell id="1" parent="0" />
      </root>
    </mxGraphModel>
  </diagram>
</mxfile>
